<?xml version="1.0" encoding="UTF-8"?>
<svg xmlns="http://www.w3.org/2000/svg" version="1.1" viewBox="0 0 29.9999992 1.2298579">
  <!-- Generator: Adobe Illustrator 28.7.1, SVG Export Plug-In . SVG Version: 1.2.0 Build 142)  -->
  <g>
    <g id="Layer_1">
      <path d="M30.0111161.6149289c-.0540771.0059204-.1191201-.002184-.1731362.0037364-.0065308-.0023193-.0130615-.0046997-.0195923-.0070801-.0357666.0042725-.0715332.0084229-.1072388.0127563-.0200195.0004272-.0402222.0003662-.0510864.0140381h.000061c-.0001221.0071411.0195923.0123291.0005493.0211182-.0169678.0093384-.0349121.0112915-.0535278.0061035-.0123291.0016479-.0246582.0031738-.0370483.0047607-.0003052.0001221-.0003052.0003052-.0006104.0003052-.0239258-.0054321-.0470581-.0014648-.0700684.0070801-.0230713.008606-.0469971.0164795-.0737915.0197144-.00177.0109253-.0286255.0112915-.0315552.0217285-.0345459-.0057983-.0674438-.005127-.0953369.015686.0044556.0194702.0621948-.0071411.0614014.0175171-.0045776.0014648-.0093994.0025635-.0144043.0032959-.0119629.0058594-.0239258.0114136-.036438.00354-.0393677-.0015869-.0770264.0120239-.1157837.0130005-.0239258.0005493-.03125-.0054321-.0140991-.0180664.0137329-.0009766.0386963-.0027466.0371094-.0074463-.0037842-.0113525-.0241089-.0032959-.0383301-.0009155-.0384521-.0025024-.0553589.0197754-.085022.0275879-.0287476.0075684-.0341797.0062256-.0427246-.0137329.0038452-.0018921.0075684-.0037231.0112915-.0056152-.0039062-.0007935-.0076294-.0015259-.0115967-.0023193.0065918-.0075073.0131836-.0150757.0197754-.022644.0079346-.0120239.0206909-.0076294.0327759-.0055542.0204468-.0020752.0423584-.0021973.0546875-.015625-.0072632-.0019531-.0129395-.0049438-.0192871-.0075684-.0688477.0024414-.1223755.0261841-.1755371.0502319-.0119019.0010986-.0238647.0021973-.0358276.0032349-.0008545-.0062866-.001709-.0125732-.0026855-.0188599-.0045166-.0109863-.0182495-.0151367-.0386353-.0144653l-.0001831.000061c-.0227051-.0118408-.0603638-.0040283-.0856934-.0153809-.0163574-.0074463-.0444946-.003479-.0687256.0159302.043457-.0068359.0371704.0292358.0848999.0177002.0238647-.0024414.0477905-.0048828.0715942-.0073853-.0024414.0030518-.0020752.0057373.0011597.0080566-.0250244.0199585-.0647583.0124512-.0951538.0224609-.0255127.0063477-.0501099.0090942-.0777588.0088501-.0490112-.0003052-.1001587-.0003052-.1480713.0168457-.0101318-.0014038-.0230103-.0009155-.015564-.0111694.0046997-.0065918.0331421-.0096436.0168457-.0177002-.0096436-.0048218-.0280151.0010376-.041748.0055542l.0036011-.0021362-.0024414-.0022583c-.0178223-.0036011-.0395508.0045776-.0565796-.0010376-.005127-.003479-.0123291-.0054932-.0184326-.0083008-.0043335-.0003662-.0087891-.0006104-.0131226-.0009155-.0097656.0014038-.0164795-.001709-.0241089-.0033569-.0056763-.0002441-.0112915.0005493-.0167236.0022583-.0354004.0039673-.0708008.0078735-.1062012.0117188-.0054321-.0006714-.0112915-.0007324-.0172119-.0001221-.0066528.0010376-.0134277.0020752-.0201416.0030518-.041748-.0001831-.0836792-.0025635-.1240845.0133057-.072998-.0050659-.1460571.010376-.2261353.0157471.0130005.0183716.0609741-.0025635.0649414.0192871.0030518.0169067-.0054321.0285645-.0319214.0383911-.0131836-.0015259-.0261841-.0031128-.0391846-.0046387-.0040283.0036011-.008606.0041504-.0137939.0019531-.0302734.0025024-.0534668.0131226-.076355.024353-.0182495.0039673-.0369873.0098877-.0505371-.0007324.026123-.019043-.003418-.0223999-.0202637-.0178833-.0643311.0171509-.12854.0166016-.1933594.0220337-.0286865.0025024-.0539551.0092773-.0847168.0037842-.0215454-.0037231-.0588379-.0015259-.0810547.0159302-.0476074.0099487-.0899658-.0014648-.1362915.0020142.0192871-.0388184-.0014038-.0532837-.0612183-.0360718-.0440674.0126953-.074707.0079956-.1134033.0058594-.0603638-.0032349-.1235962.0018311-.1862183.0079956-.0169678.0016479-.036377.0040283-.050415.0012207-.0593262-.012207-.1161499-.0145874-.1397705.0042725-.032959.0263062-.0757446.0310059-.1201172.0377197-.0130005-.0011597-.026001-.0037842-.038208-.001709-.0036621.0005493-.0073853-.0003052-.0110474.0001221-.0044556,0-.008606-.0004883-.0128174-.0009155-.0032959-.0015869-.0053101.0020752-.0084839.0012817-.0455933.003479-.0913696.0031738-.1375122.0020752-.0834961-.0020142-.1688843-.0076904-.2449341.0169678-.0193481.0062256-.0401001.0066528-.0598145.0001831-.0336914-.0110474-.0703735-.0092773-.105896-.0092773-.0619507.0001221-.125.0055542-.1832886.0119629-.0723267.0079346-.1450195.0068359-.2174683.0083008.0050659-.00177.0074463-.0037842.0014648-.0050049-.0018921-.0003662-.0057373.0007324-.0077515.0016479-.0012817.0005493-.0009766.0023193-.0014038.003479.0003662.000061.0006714.000061.0010376.0001221-.02771.0006104-.0557861.0004272-.083252.0031738-.048645.0047607-.1028442-.0042725-.1512451.0007324-.1381226.0141602-.2759399.0163574-.4177856.0158691-.2142944-.0007935-.4286499.0123901-.6402588.0300293-.0436401.00354-.0825195.0016479-.104248-.0180664-.0310059-.0280762-.0776367-.0411377-.128479-.0509033-.0338135-.0065308-.0494995-.0174561-.0501099-.0357666.0078735.0005493.0159912-.0012207.0238037-.0013428.0283203-.0002441.0564575.0054321.0770264-.0142822.0049438-.0007324.0096436-.0021362.013916-.0040894.0337524-.008728.0715942.0018311.1143799-.0154419-.0552979-.008728-.1035767-.0011597-.1511841.0032349-.0117798-.0023193-.0234985-.0016479-.0350952.0031128-.0304565.0079956-.0570679-.0006714-.0861206.0010986-.0377808-.0079956-.0671387-.0303345-.1124878-.0202026-.0731201.0162354-.0562744-.038147-.1062012-.0387573-.0028687-.000061-.0058594-.0009766-.0087891-.0011597-.0126343-.0007935-.0248413-.0029907-.0371094-.0047607.0059204-.0020752.0109863-.0046997.0071411-.0080566-.0019531-.00177-.0102539-.0025635-.0143433-.0014038-.0032959.0008545-.0045166.0048828-.0066528.0076904-.0574341-.0097656-.1123657-.026062-.1751099-.0222778-.0148926.0008545-.0310669-.0004272-.0383911-.0093994-.0091553-.0111084.0021362-.0189209.0171509-.0245361.0231323-.008606.057373-.0129395.020752-.0346069-.0142822-.0084229.0038452-.0184326.0187988-.0233765.0147705-.0048828.0350952-.0054932.0485229-.0111084.0523682-.0216675.1347046-.0164185.1693726-.0535889.0137939-.0187378.0585938-.0042725.0753784-.0197754.0543823-.0140991.1190186.0141602.1780396-.0116577-.0535889-.0270386-.0164795-.0768433-.0949707-.0990601-.005249-.0014648-.0041504-.0091553-.0070801-.013855-.0327759-.0507812-.0447388-.0533447-.1456299-.0463257-.0293579.0021362-.0626831.0165405-.0919189-.0008545-.02771-.0166016-.0427856-.013855-.0567017.0053711-.0060425.0084229-.0202026.0151978-.0308838.0227661-.0477905-.0136108-.0958862-.0164795-.1445312-.0038452-.0476074.0083008-.0994263.0041504-.147644.0124512.0498047.0026245.0997314.0127563.1478271-.0010376.0367432.0062256.079834-.008606.1124268.0117188-.0620117.0299072-.1394653.031311-.2178345.031189-.0657349-.000061-.1329346-.0026855-.196228.0062866-.1217041.0172119-.2455444.0287476-.3700562.0392456-.0192261.0030518-.0394897.0049438-.0574951.0093994-.0227051.0054932-.0530396.0080566-.0508423.0275269-.0222778.0040894-.0443115.0309448-.0664062.0055542-.0143433-.0164795-.020752-.017334-.0496826-.0146484-.0552368.005188-.0797729-.0037231-.1027222-.0327759-.0061646-.0078735-.0168457-.012207-.0245361-.0084229-.0454102.0217896-.1015015.0077515-.1517334.0124512-.0348511-.0018311-.0706177-.0054321-.0926514.0145874-.0820312.0055542-.1643066.0106812-.2461548.0169678-.0171509.0013428-.0333862.0062866-.0444946.0143433-.0083618.0072632-.0252075.005249-.036377.0095215-.0375366-.0024414-.0709229.0061035-.105957.0100098-.0280762.0023193-.0231934.0144653-.0245361.0249023-.0339355-.0096436-.0541382.0107422-.0841064.0098877-.0419312-.00177-.0838013-.003479-.1258545-.005127.0003662-.0026855.0020142-.005127.0048218-.0072632.019043-.0112915-.0003662-.020813-.0067139-.0309448-.0055542-.0028687-.0106812-.0059814-.0153809-.0092773-.0551758-.0007324-.0562134-.0001831-.0411377.0245972.0001221.0018311.0032959.0028076.0046997.0041504-.0003052,0-.0006104.0001221-.0009155.000061l-.0037842-.0042114c-.0250244.0048218-.0355225.0127563-.0061035.0209961.0168457.0046997.0390625.0033569.0588379.0047607,0,.0021973.0007935.0044556.0021362.0065308-.0298462.0028687-.0596924.0036621-.0894165-.0021973-.0183105-.0145874-.0453491-.0101318-.0701294-.010498-.0013428-.0091553-.0026245-.0183716-.0039673-.0275879.0105591-.0053101.0210571-.0106201.0338135-.0169067-.0332642-.007019-.0529175.0001221-.0678711.0137939-.0292358.0021362-.055603.0176392-.0842285.0112305-.0474854-.0106201-.0806885.0007324-.1100464.0151978-.0516968.0255127-.1174927.0334473-.1808472.0308228-.076416-.0030518-.152832.0025635-.2296143-.006897-.0924683-.0114746-.1762085.0111084-.2625732.0217896-.0099487.0012207-.019165.0053711-.0189209.0126343-.0274048-.0029297-.0485229.0149536-.0742188.0073853-.0383301-.0113525-.0771484-.0047607-.1136475-.0040894-.067688.0010986-.1373901.0060425-.1923828.0296021-.0548706.0234375-.1618652.0346069-.236145.0213623-.0193481-.0206909-.0671387-.0041504-.0890503-.0214233.0026855-.0026245.0066528-.003418.0119629-.0022583.0279541.0040894.0463867-.0030518.06073-.0147095.0185547-.0007324.0371094-.0014648.0557251-.0021362.0406494.0073242.0445557-.0164795.0685425-.0232544.0838013.0219727.151062-.0140991.2281494-.0153809.0012207-.000061.0023193-.0028076.0028687-.0044556.0090332-.022583.0516968-.0241089.0778198-.0360107.0148315-.0009155.0315552-.0027466.0292358-.0125732-.001709-.0072632-.0178223-.0062256-.0288696-.0058594-.0145874.0003662-.0292969.0012817-.039978.0076904-.0491333.0015869-.09552.0081787-.1392822.0197144-.0547485-.0007324-.1114502-.0198364-.1638184.0021362-.0172729.0006104-.0344238.0011597-.0515137.001709-.0358276-.0009766-.0715942-.0019531-.1074829-.0029907h-.000061c-.0375366.0041504-.0771484.0040894-.1112061.0149536-.020813.0043335-.0462036-.0013428-.0646973.0078735.0200806.0008545.0401611.001709.0604248.0026855-.0200195-.0028687-.0402222-.0040894-.0605469-.0026855-.008667.0010986-.017334.0022583-.026062.003479-.0084839.001709-.015625.0054932-.0258179.0048828-.0228882-.0021973-.0458374-.0041504-.0621338.0076294.010498.0192261.0545654.0074463.0691528.0227661-.003479.0027466-.0044556.0057373-.0033569.0090942-.0078125.0045776-.0153809.0131836-.0234375.0132446-.0771484-.0001831-.1415405.0271606-.2198486.0245972-.0322266-.0010376-.0643921.0026855-.0968018.0042114-.0220947-.0007324-.0462036-.0050659-.0648804.012207.0239868.0020752.0446777.0038452.0653687.0056763l-.001709.0012207c-.0007324.0030518-.0009766.0061646-.0005493.0092163-.0466309.0050049-.0928345.0137939-.1399536.0143433-.1179199.0015869-.2322998.0273438-.354248.0049438-.0403442-.0074463-.0848999-.0004883-.0973511.0281982-.0084839.0197754-.0384521.0236206-.0682373.024292-.0335083.0006104-.0657349.0028076-.09552.010376-.0283203.0070801-.0522461.0004883-.0768433-.0061646-.0304565-.0145264-.0606079-.0177002-.0899048-.0007935v-.0001221l-.0002441.0001831h.000061c-.0110474.0046387-.0079346.0137939-.0192871.0183716-.0058594-.0003662-.0116577-.0006714-.017395-.0010376-.012207-.0040894-.0068359-.0155029-.0249634-.0171509l-.0057983-.0003052c-.0157471.0006714-.0335693.0024414-.022522-.0118408l-.0021362-.0022583c.0117798.0005493.0235596.0010986.0353394.0015869.0116577-.0042725.0273438-.0025635.0391846-.0067749.0042725-.0012207.0090332-.0020142.0140381-.0021973.0219116.0018921.0409546.0007324.0484619-.0139771-.0290527-.0054321-.0565186-.0072632-.0825195.0028687-.0151367.003418-.0305786.006897-.0457764.010437l-.0004272-.0011597-.0010986.0007324-.0026245-.0008545-.0031128.0019531c-.0460205,0-.0861206-.0093994-.1229248-.0241699-.0028076-.0077515-.006897-.0159912.0158081-.015686.03479.0004272.0631714-.0067139.0859375-.0203247-.1975708-.0090942-.2009277-.0087891-.3961792.0283203-.105835.006897-.2145386.0046997-.3167114.0233765-.0435181.0006714-.0853882.0095825-.1298828.0048218-.046875-.0062866-.086731.003479-.1264038.013855-.0093384.0001221-.0192871-.0040894-.02771-.0025635-.02771.005188-.0459595.0032349-.0583496-.0097046-.0230103-.0239868-.0631104-.0092773-.0934448-.0012817-.0175781.0046387-.006958.0128784-.0042725.0203857-.0313721.0065918-.0632324.0112915-.0944824.017395l-.0075684-.0007935-.0063477.0021973c-.0302734.0029907-.0569458.0169678-.0913086.0070801-.0949097-.0029297-.1855469.0150757-.2807007.0126343-.0127563-.0004272-.022644.0042725-.0211792.0119019.0015869.0082397.0147705.0094604.0261841.0090332.0440674-.0015869.0878906-.0046387.131958-.0054321.0198975-.0003662.0365601.0046387.0166626.0172729-.0109863.0032349-.0220947.0063477-.0330811.0095215-.0250854.0061646-.0564575.0043335-.0765991.0166626-.0134888.0028076-.0391846-.0067139-.0391235.0080566-.000061.0083618.0183105.0112915.0336304.0080566.0136719-.0029297.0266724-.0053101.0408325-.0007935.0014648-.0014648.0019531-.0031128.0012207-.0048218h.0001221c-.0006714.0015869-.0028076.0031128-.0013428.0048828.000061.0048218.0001221.0097656.0001831.0146484-.0840454.0178223-.1711426.0276489-.2631226.0246582-.0691528-.0105591-.1356812-.0339355-.2103882-.0158081-.0234375.0008545-.043457.0109253-.0687866.0065308-.0050049-.0072632-.0090942-.0144043.005249-.0198975.038269-.0145264.0754395-.0278931.12854-.0223389.0612183.0065308.1175537.0004272.1569214-.0281982l.03479-.0003662c.0100708.0012207.0180054.0003662.0197754-.0061035.0181274-.0007935.0479126.0158081.0499878-.0090332-.0371094-.0137939-.0515137-.0144043-.1219482-.0053711-.0336914-.0028076-.064209.005188-.0962524.0067139-.0739136.003418-.1409302.0202637-.2147217.026001-.0458374.0036011-.0966797-.003479-.1377563.0083008-.046814.0134277-.0941772.0167236-.145813.0130615-.0148926-.0010986-.029541.0012817-.0374146.0094604-.1020508.0100098-.204834.0177002-.3063354.0293579-.0340576.0039062-.0627441.0177612-.1011353.0135498-.0852051-.0093384-.1619873.0128174-.2441406.0162354-.0734253.0030518-.1444702.0172729-.2179565.0218506-.0253906.0015869-.050354.0042725-.0756226.0061035-.0003662-.001709.0042725-.0018921.0028076-.0039673-.015564-.0214844-.0596313-.0063477-.0872192-.0014038-.0457764.0081177-.0811768.0003662-.1140137-.0162964.0316162.0022583.064209.0088501.0924683-.0043945.0030518-.0026855.0071411-.0030518.0118408-.0010986.0187378-.0055542.0427856.0006714.0606079-.006897.0303345-.0162964.0809326.0032959.109375-.0162964.0419922-.0002441.0838623-.0010376.1258545-.0003052.0216064.0003052.0335693-.0043335.0393066-.0148926.1025391-.0032349.206604.0012207.3071899-.0124512.1166382-.0160522.2293091-.0393066.3502197-.0477905.0342407-.0024414.0723267.0037842.1033936-.0084839.1917725-.0188599.3867188-.029541.5759888-.0551147.0728149-.0076294.145874-.0153198.2188721-.0228882.0263672-.0007324.0549316.0048218.0780029-.0061646.015686-.0004272.0313721-.0007324.0471191-.0012207.0290527-.0026245.0579224-.0053711.086853-.0080566.0264893.0015869.053894.0066528.0762939-.0053101.038269-.0026245.0791626-.0001221.1112671-.0148926.0407104-.0008545.0813599-.00177.1219482-.0026245.0215454.0037231.039978-.0007324.0586548-.0050659.0189209-.0006104.0412598.0032959.0514526-.0098267-.0050659-.0026855-.0100708-.0054932-.0147705-.0084229-.0150757-.0010376-.0289917-.0004883-.0383301.006897-.0177612,0-.0354004-.000061-.0531006-.0001221-.0005493.003418-.0010986.0067139-.0016479.0101318-.001709,0-.003479,0-.005127-.000061.0056152-.0026855.0105591-.0054932.0067749-.0100708-.0535278-.0065308-.1110229.0059814-.1621094-.0127563.013916-.0067749.0315552-.0084839.0491333-.0105591.0164185-.0018311.0411987.0001221.0403442-.0132446-.0010376-.017395-.0308838-.0110474-.0488281-.0144043-.0161743-.0042114-.0322266-.0117188-.0483398-.0120239-.0498047-.0008545-.0269165-.0177612-.0270996-.0297852.0236816-.0161743.0587158-.0120239.0895386-.0115356.0650024.0010376.1299438.0045166.1949463.007019.0076294.0043335.0153198.0087891.0230713.0131226-.0210571.0116577-.055481.0205078-.0274048.0431519.0291138-.0003052.0500488-.0143433.081543-.0133057.1566162.0048218.3074341-.0150146.4606323-.0245972.0331421-.0020752.0629883-.0075684.0941162-.0118408.0482788.0089111.1027832-.0059204.1481323.0142212.0001221.003418.0001221.0067749.0002441.0100708.0351562.0007324.0703735.0014648.1055908.0020752.0233154-.0085449.015625-.0149536-.0070801-.0186157-.0272217-.0044556-.0609131.0036011-.0812378-.013855.0135498-.0076904.0324097-.0062256.0498047-.0078125.1016235-.0090942.2042236-.0160522.3040771-.0288696.0734863-.0094604.1444702-.0232544.2224121-.0175171.0429077.0031738.0844727.0015259.1218262-.0092163.0419312-.0120239.0953369-.0071411.131897-.0302124.0169067-.0106812.0563354-.0089111.0922852-.0015259.0558472.0115356.1165771.0111084.1741943.0001831.0274658-.005249.0543823-.013916.085022-.0102539.0443115.005188.0637817-.008667.0844116-.0285034-.0998535-.0286255-.1940918.001709-.2891235-.0015869-.0737305-.0025635-.1429443.0130005-.2145996.0189819-.022644-.0060425-.034668-.015686-.0343018-.0294189.0115967-.0114746.034668-.0139771.053894-.0194092.0647583.0005493.1275024-.0065918.1907959-.0113525.0212402-.0015869.0310669-.0071411.0296021-.0186768.0177002-.0133057.0432739-.0130005.0700073-.0107422l.0032959.0021362.0046997-.0008545c.015564.0025635.0322266.0032959.0457764.0090942.0124512.0033569.0246582.0031128.0366821-.0003662.008667-.0026855.0164185-.0065308.027832-.0057983.0088501-.0009155.0178833-.0020142.0268555-.0029297.0373535-.0061035.0773926.0037231.114624-.00354.0152588.0012817.0281372-.0001831.0357056-.0082397.0054932.0009155.0095215,0,.0119629-.0027466.0234375-.0071411.0513306.0012207.0750732-.0050049l-.0011597-.0005493c.0115356-.0001831.0231323-.0004272.034668-.0006104.0059814.0001221.0119019.0003662.0178833.0004883.0061035.0001831.012146.0002441.0183105.0004272.0058594,0,.0117798.000061.0177002.000061.022644.0039062.0429077.0008545.0617676-.0055542.0095825-.0002441.0192261-.0004883.0288086-.0007324.0186768-.008667.0437012-.0025635.0640259-.0072021l.0050049.0012207.003479-.0022583c.0344238.0031128.0674438.0011597.098877-.0062256.0098267.0029907.019043.0025635.027771-.0006104.0273438.0032349.0534058.0033569.0756836-.006897.0322266.0003052.065979.0040894.0958252.0001221.0577393-.0076904.125.0039673.1735229-.0218506.0115356,0,.0230713-.000061.034729-.000061v-.000061c.0374146.0155029.0679932.0065308.0974731-.0065308.0054932.0016479.0093994.0009155.0118408-.0021362.0183105-.0062256.0413208-.0006104.0601196-.0059814l.0057983.0002441c.0263672.0054321.0528564.0075684.0792236.0012817-.0001831.0001831-.0003662.000061-.0005493.0001831.026001-.0024414.052063-.0048828.078064-.0073242l.0068359.0013428.0053711-.0024414c.0244751-.0087891.0546875.0003052.079834-.0062256l.0057373.0016479.0048218-.0021973c.0093994-.0065918.0254517-.0053711.0410156-.005249.0223999-.0007324.046875.0025024.0639648-.0081787.0046997-.0029907.0054932-.0091553.003418-.0133667-.0020752-.0045166-.0108032-.0080566-.0203247-.0058594-.0292969.0068359-.0658569-.0011597-.0921021.0118408.0199585.0012207.039856.0024414.0616455.0037231-.0004883.0005493-.0018311.0002441-.0023804.0006714-.0199585-.0044556-.039856-.0072632-.0592651-.0043945-.0067749-.0020142-.0137329-.0037842-.0209351-.0007324-.0410767-.0059814-.0822754-.008728-.1235962-.0029907-.0112915-.0023193-.0223389-.00354-.0317383.0016479-.0062866.0023193-.0127563.0045166-.0193481.0064697l-.0083008-.0004272-.0083618.0010986-.0044556-.0025024-.0057983.0009766c-.0151978-.0032349-.0302734-.0056763-.0448608-.0001831-.0081177.0059204-.0251465.0036011-.032959.0099487l-.0015869.0007324c-.008728.0025635-.0160522.0064697-.0268555.0065918l-.0056152-.0014648-.0046997.0022583c-.0308838.0028076-.0649414-.0049438-.0928345.007019l-.0082397-.0009155-.0074463.0018311c-.0178223-.0012817-.0355835-.0025635-.0533447-.0038452-.0022583-.0059204-.0014038-.0163574-.0161133-.0142822-.1098022.0155029-.2232666.024231-.3289795.0471191-.0300293.0060425-.0598755.0046997-.0897217-.0019531-.0062256-.0001831-.0123901-.0003052-.0185547-.0004883-.0071411.0023193-.012207.0067749-.0219727.0065918l.001709-.0007324c-.0093994.0098267-.0290527.0067749-.0440674.0096436l.0007935-.0003052c-.0192261-.0236816-.046814-.0245361-.0801392-.0100098l-.0004272.0002441c-.0067139.0026245-.0122681.0061035-.0197144.0081177-.0131226.0096436-.0385742.0004272-.052063.0094604l-.0010986-.0001831c-.006897.0028076-.0115967.0072021-.0209961.0080566l.0015259.0001221c-.0162354-.0004883-.0325928-.0009766-.0488892-.0014038-.0092163-.0020142-.0169678-.0050659-.0221558-.0098267-.0065308-.0023804-.0125122-.0021973-.0178833.0009155-.0108643.0044556-.0076294.0155029-.0258789.0164795l-.0061035-.0005493-.0045776.0021362c-.0123901-.0036621-.0247192-.0072021-.0370483-.0108032-.0108643-.0059814-.0216064-.0067749-.0323486-.0006104-.006897.0032959-.013916.0065308-.020752.0097656-.0153198.0073242-.0391235-.0007324-.0539551.0076904l-.0004272.0003052c-.0180664.0061646-.0360718.0053711-.0542603-.0009155-.0181274-.0042114-.0361938-.0036621-.0544434-.0008545-.0352783-.0020752-.0645752.0054932-.0927124.0151978-.0487671.0059814-.0930786.0286255-.1490479.008667-.0115356-.0041504-.0231323-.0001831-.0306396.0045166-.0198364.0126343-.0462036.0111694-.0728149.0096436-.0205688-.0011597-.041626-.0027466-.0549927.0085449-.0466919.0005493-.0944824.0007935-.1397095.0030518-.1038208.0050049-.2026978.0289307-.3113403.0183716-.0064087-.0006104-.0147705.0039673-.0216675.0064697-.0484009.0178833-.1038818.0218506-.1613159.0206909-.118103-.0023193-.2283325.0221558-.34552.0230103-.0055542,0-.0116577.0016479-.0162354.003479-.06427.0263062-.1369629.0252075-.211853.0153198-.0153198-.0020142-.0325317-.0054932-.041687.0016479-.0211182.0164185-.0562744.0079346-.0810547.0142212-.0432129.0110474-.0892944-.000061-.1323242.0076294-.1112671.0197754-.2232056.0383301-.3447876.0263062-.0072021-.0007324-.0102539.0007324-.0154419.0026245-.0741577.0263672-.163147.022644-.2460938.0261841-.0618896.0026855-.1174316.0171509-.1817627.0161133-.0363159-.0006104-.0610352.0269165-.0929565.0495605-.0088501-.0294189-.0462646-.0394897-.0787964-.0359497-.06073.0067139-.1289062.0022583-.1818848.0148926-.1040039.0247803-.2197876.0205688-.3240356.043457-.0737915.0162964-.1591797.0098267-.239563.0213013-.0706177.0101929-.1478882.0224609-.2265625.0204468-.0549927-.0014038-.1057129.0078735-.1547241.0186768-.0485229.0105591-.1052856.0172729-.1502686.0153198-.0483398-.0022583-.0858154.0025635-.1270142.0100098-.0730591.0131226-.1448975.0280762-.2249756.0275879-.0480347-.0002441-.0952759.0056763-.1391602.0161133-.0224609.0054321-.0462036.0089111-.069519.0077515-.0010376,0-.0018921.0002441-.0029297.0002441-.0148926-.003479-.0339355-.0036011-.0393066-.0147705.0211792-.0100098.0514526.0020142.072876-.0075684.0167236-.0028687.0386353-.0011597.0491333-.0095825.0324097-.0257568.0826416-.0282593.1343994-.0287476-.0142822-.0372314-.0182495-.0393066-.0700684-.029541-.02771.005249-.0559692.0100708-.079895.0204468-.0257568.0111084-.0454102.0057373-.0502319-.0117798-.0085449-.0302734-.0401611-.0167236-.0643311-.0107422-.0150146.0037231-.0096436.0189819-.0314941.0214233q-.0584717-.0339355.0064697-.0523071c.0057983-.0032959.0115967-.0066528.0200806-.0079956l.0004883-.0003662c.013916.0014038.0367432.0020752.0358276-.0040894-.001709-.0117798-.0234985-.0065918-.0379028-.0065308-.0159912-.0092773-.0544434-.0046387-.0553589-.0204468-.0009155-.0159912.0251465-.0236206.0527344-.0283203.0131836-.0022583.0397949.0054932.0374146-.0115967-.0438843-.0124512-.0820923-.001709-.1194458.0071411-.0305786.0072021-.0602417.0033569-.0874023-.0030518-.0340576-.0079956-.0303955-.0351562-.0678711-.0441284-.0050049-.0011597.0031738-.0119019.0131836-.0158691.0219727-.008606.0462646-.0134277.0743408-.0142212.0249023-.0006714.0523071-.0007324.0668945-.0175171-.0667114-.0024414-.1314087.0028076-.1849365-.0300903-.0166016-.0101318-.0575562-.0258179-.0942383-.0220947-.0302734.0029907-.0380859-.0058594-.0444946-.0166626-.0079956-.0134277.0058594-.0233154.02771-.0259399.0286865-.003418.0487671-.0097656.0576172-.0251465-.0144653-.0134277-.0505981.0015259-.0540161-.0090332-.0110474-.0350342-.0651855-.0215454-.098877-.0302124-.0136719-.003479-.0274658-.0014648-.0380249.0064697-.036499.0275269-.0386353.0283813-.0853882.0089722-.0369263-.0151367-.0681763-.0320435-.0969849.0025635-.0050659.0062256-.0244751.0134277-.0355835.0125732-.05896-.0045776-.1061401.0170898-.1625366.0164795-.0072021-.0095825,0-.0249634-.0239868-.0274048-.0189209-.0020142-.0234375.0107422-.0292358.0192261l-.0007935.0004272c-.0128174.0040283-.0254517.0037842-.0380249-.0011597-.0773315-.0375366-.1643066-.0148315-.2473755-.0158081-.0314331.0071411-.0238037.0265503-.0394287.0385742-.0252075.0050049-.0620117-.0053711-.0751343.015564-.024353.0093384-.0318604-.0062256-.0476074-.0097656-.0311279-.007019-.0460815.0020142-.0420532.0224609.0009766.0047607-.0009155.0095215-.0015869.0142822-.0222778.0006104-.0362549-.005249-.0469971-.0158691-.0083008-.0080566-.0202026-.0152588-.039917-.0148926-.0473633.0045166-.0928955.0097046-.1157227-.0255737-.0073242-.0112915-.0340576-.0136108-.0480347.0014038-.012146.0161133-.0384521.0188599-.0643921.0149536-.0383911-.0059814-.0673218.003418-.0985107.0107422-.0292969-.0007324-.0587158-.0014038-.0880737-.0021973-.0097656.0046387-.0134888.0102539-.0054321.0165405.0007324.0006104.0020142-.0001831.0028076.0002441.0018921.0036621-.0108032.0064697-.0016479.010437.0109863.0046997.0237427.0082397.0358887.0122681-.0119629.0095825-.0238647.0192261-.0358276.0287476-.0343628-.0103149-.0394287.0214844-.0662231.0141602-.0993042-.0268555-.1954346.0077515-.2931519-.0026855-.0684204.0286865-.152771.0194092-.230896.0241699-.0900269.0054321-.1812134.0095215-.2710571.0110474-.0945435.0016479-.1838989.0164795-.2775269.0170898-.0010376.000061-.0020142.0019531-.0029297.003418-.0836792-.001709-.1672363-.003418-.2507324-.005188-.0237427-.0102539-.0252075-.0200806.0010376-.0289917.0471802-.0131226.100647-.0195312.1445312-.036438.0179443.0003662.0357666.0007324.0536499.0009766.0359497.0028076.0664062-.0050659.097168-.0163574-.0257568-.0006714-.0515137-.0013428-.0772095-.0020142-.0089111-.0021973-.0178833-.0043335-.0193481-.010498.0199585-.0119019.0319824-.026062.0422974-.0418701-.0249634-.0092773-.0568237-.0142822-.0653076-.0316772-.0095825-.0193481-.0245361-.0314941-.0675659-.0274048-.0217896.0020142-.0394287-.0065308-.0462646-.0189819-.0043945-.0080566-.0484619-.0363159-.0584717-.0397949-.0068359-.0023804-.0102539-.0078125-.0151978-.0118408.0057373-.0084229-.0161133-.0237427.0201416-.0245972.0222778-.0003662.0352783-.0098267.0500488-.0167847.0054321-.0026245.0092773-.0089722.0072021-.0125732-.0043335-.0072632-.0167847-.0074463-.0286865-.0054321-.0350342.0059204-.0621338.022583-.1030884.0205078-.0541992-.0135498-.1124268-.0065918-.1685791-.0112915-.097168-.0078735-.1976318-.0123901-.2941284-.0072632-.0748291.0039062-.1470947.00354-.2210083-.00177-.0255737-.0126953-.0613403-.0198975-.0733032-.0400391.0847778.0021362.1696777.0043335.2545776.0064087.0169067.0126343.0440063.0126953.06604.0125732.1489868-.0007935.2993164.0023193.4407349-.0268555.041626.0115967.083374.0204468.124939.0021362.0360107-.0055542.0241699.022644.0535278.024353.0072021-.0214844-.0161743-.0425415.0130615-.0592651-.0276489-.0083008-.0474243-.0025024-.0674438-.0027466-.0223999-.0064697-.0455933-.0026855-.0684814-.0025635-.0319824-.001709-.0640869-.0026855-.0957642-.0053101-.0240479-.0020142-.0539551.0060425-.0706787-.0113525.015686-.0214233-.0282593-.0525513.020813-.0658569.0413818-.0111694-.0081787-.0210571.0060425-.0293579.0344849.0009155.0690308.00177.1034546.0026855.0016479-.0036011.0032349-.007019.0050049-.0105591-.0787354.0046997-.1191406-.0327759-.1834717-.0440063-.0984497-.0025024-.1970825-.0044556-.2956543-.0074463-.0814819-.0025635-.163269-.0183105-.2444458-.0021973-.0097656.0018921-.0239258-.0032959-.03479-.0021362-.0785522.0079346-.161499-.0102539-.2375488.007019-.0258179.0058594-.0510254.0055542-.0774536.0071411-.0719604.0045166-.144043.0014648-.21521-.0020752-.0621948-.0030518-.1178589.015564-.1754761.0103149-.0646362-.0058594-.1246338-.0022583-.1862793.0032959-.0559082.0050049-.1236572-.0111084-.1626587.0248413-.0027466.0026245-.0170288.0012817-.0256958.0022583-.0441895.005188-.0891724.0020752-.1338501.00177-.0097046.0054932-.0275879.0026245-.0354614.0098877-.0196533.0047607-.0390625.0042725-.0582886-.001709-.0473022-.0021973-.0928345-.005127-.1408691.0029907-.0491333.0083618-.1046753.0142822-.1474609-.0167847-.0143433-.010376-.0442505-.008667-.0682983-.0057373-.0280151.0039062-.0188599.0333252-.0626221.0263062.0139771-.0278931-.0236816-.0186157-.0470581-.0195312-.0115356.0026245-.0230103.0053101-.0345459.0079956-.0083008-.0025024-.0165405-.005127-.0248413-.0076904-.034729-.000061-.0704346.0092773-.1036987-.0048828-.0057373.0003052-.0114136.0005493-.0170288.0007935-.0266724.0043945-.0629883-.0055542-.0805664.013916.0325928.0119629.0549927-.0012817.0802612-.0062256.005249.0010986.0105591.0021973.0158691.0032959.0115356.0110474.0536499-.0002441.0512695.0200195-.0021973.0175171-.0340576.0057373-.0493164.0120239-.0134277.0055542-.0309448.0083618-.0466919.0123291-.0564575-.0181274-.1066284-.003418-.1578369.0059814-.0827637.0006714-.1647949-.0062866-.2466431-.0133667-.0117798-.0043945-.0236816-.0087891-.0354614-.0131836-.0005493.0003052-.0012207.0005493-.00177.0009155,0-.000061-.0001221-.0001221-.0001221-.0001831l.0018921-.0007324c.0014038-.0033569.0002441-.0063477-.003479-.0092163-.0234375-.0215454-.0491943-.0099487-.0745239-.0028687-.0323486-.005249-.0601196.0010376-.0870361.0090332-.013916-.0018311-.0300293-.0038452-.0380249.0032959-.0046387.0042725.0088501.0065918.0161133.008728.0045166.0094604.0028076.0204468.0215454.0267944l.0053101.0020752.0062256-.0009155c.0046997.013916-.0172119.0196533-.0278931.0289307-.0079346-.0002441-.0157471-.0004883-.0235596-.0006714-.0116577-.0036011-.0231934-.0072021-.0348511-.0108032-.0057373-.0032349-.0115356-.0064697-.017334-.0097656q-.0481567-.0043945-.1436157.0152588c-.0128784.003479-.0292969.0080566-.0236816.0160522.0025635.0036621.0259399.0032959.0397339.0047607-.0002441.0055542-.0004272.0110474-.0006714.0166016-.0459595.0098877-.1043701-.0063477-.1434326.0177002-.0103149.0054321-.0263672.0037231-.0372925.0082397h.0002441c-.0059204.0041504-.0123901.0077515-.0232544.0076294-.0095825.0001831-.019043.0004272-.0286255.0005493-.0067749-.0028076-.0123901-.0025635-.0169067.0012817l-.003479-.0012207c-.0042725.0079346.0076294.0090332.0166626.0112915h-.0004883c-.0054321-.0037231-.0108643-.0075073-.0161743-.0112915-.0257568-.0018311-.0527954-.0064087-.0690918.0096436.0073242.0192261.0306396.0097046.0491333.0088501.012085.0007935.024292.0015259.036438.0023193.0354004.0090942.0679932.0079956.09729-.0058594.0231934.0031128.0509033.012146.0686646.0083008.0479736-.010498.0906372-.0068359.135437.0050049.0171509.0045166.0354614.0050659.0436401-.007019.0088501-.0131226.0262451-.0005493.0313721-.0019531.0454712-.0129395.0877075.0115356.1314697.0043945.0206909-.0116577.0432129-.0195312.0748901-.0101318.0209351.0175781.0437622.0206909.0692139.0038452.0071411-.0203247.0299683-.0289307.0640869-.0179443.0640869.020752.1281738-.0077515.1914673.0054321.0037231.0008545.0142212-.0020752.0145874-.0037842.0062866-.0283203.026062-.0141602.0475464-.0045166.0205078.0092773.0437012.0097656.0662842.0020752.1295166-.0031738.257019-.019104.3872681-.0137939.0495605.0020752.0875244-.0139771.1342773-.0123291.1159668.0042114.2323608.0119629.3464355-.0045166.0157471-.0021973.0348511-.0059204.050354.0031128.003418.0100098.024231.0112915.0325928.0187988.0001221.0019531.0036011.0027466.005188.0042725-.0008545-.000061-.0010986-.0006104-.0018921-.0006104l-.0032959-.0036621c-.0212402.0031128-.0509644-.0015259-.0579224.0162354.0238037.008728.0396118-.0003052.0574341-.0032349.0054321.0043335.0090942.0099487.0214844.0097656.000061-.000061.0001221-.000061.0001831-.0001221l-.000061.0001831c.0004883.0032349-.0001221.0063477-.00177.0094604-.0058594-.000061-.0118408,0-.0177612-.000061-.0301514-.0006104-.0599976.0100098-.0904541-.0009155q-.0415649-.0010376-.0567627.0144653c.0214233.0030518.0373535-.0058594.0569458-.0066528.0287476.0134888.0582275.0202637.0900879.0042725.0059814-.0008545.0118408-.0018311.0178223-.0026855.02948.0011597.0591431.0022583.0886841.003479.0179443.0012817.0359497.0026245.053894.0039673.0001831.0023193.0007324.0046387.0015259.006958-.0170288.0059814-.0379639.0189209-.0505981.0167236-.0594482-.0106201-.1071777.0136108-.1644897.0092163-.0344238-.0025635-.0738525-.0015259-.1049194.0054321-.0618286.0140381-.125061.012207-.1898193.0127563-.0812988.0007324-.166748-.0123901-.2418213.0146484-.0177002.0064087-.0422974.0055542-.0601196-.0012817-.0418091-.0159302-.0872192-.0078735-.1191406.0007935-.0385132.010498-.0770264.010376-.1158447.0140991-.0001221-.0002441-.0010376-.0002441-.0010376-.0005493-.0008545.0004272-.00177-.0001221-.0026245.0001831h.000061c-.03125-.003479-.0583496.0068359-.0887451.0063477-.0003052-.000061-.0006104-.0001221-.0008545-.0001221.0319824.0053101.0629272.0067749.0895386-.0062256-.0018921-.006958-.0099487-.0115967-.0214233-.0105591-.0474854.0043335-.0985718.0006104-.1415405.0153809-.0491333.0120239-.100708.0177612-.1556396.0161743-.020813-.0006104-.0483398-.0037231-.0610352.0018921-.0317383.0143433-.0682373.0216064-.105835.0183105-.0374756-.0033569-.0753174.0189209-.1116333-.0031738-.0021973-.0014648-.0161133.0021973-.0241089.0039673-.0326538.0075684-.0697632.0174561-.1018677.0092163-.0402222-.010376-.043457.0183716-.0800171.0137939-.0322266-.0039062-.0689087.0042725-.1050415.0025635-.0153809-.0007324-.0409546-.005188-.0432739.008667-.0040894.0259399-.0424805.008606-.0615234.0150757-.005249.006897-.0113525.008606-.0189819.0005493-.0184326-.0016479-.0337524.0016479-.0509644.005127-.0667725.0137939-.1293335.0354004-.2089844.0066528-.0286255-.0103149-.0846558-.0171509-.1199341.0055542-.0209351.0157471-.0536499.0345459-.0828857.0170288-.0435791-.026001-.0896606-.0126953-.1345215-.0167847-.0472412-.0043335-.0183716.0353394-.0669556.0315552-.0316772-.0024414-.0651855-.0209961-.0969238-.0015259-.0116577-.0004883-.0300293.0014648-.0340576-.00177-.046875-.0368652-.1030273-.0162354-.1573486-.012085-.026123.0020752-.0083618.0239258-.020874.0195312-.0568237-.0200806-.100769.0233765-.1556396.0046387-.0031738-.0010986-.0164795.0066528-.0250244.0102539-.0147705-.000061-.0294189-.0002441-.0441284-.0003662-.0560913.0161133-.1152954.0316772-.1802979.0219116-.0401611-.0060425-.078064-.0032959-.1139526-.0010376-.0371704.0023804-.0930176.0007935-.1066284.0216675-.0133057.0202637-.0339355.0220947-.0628052.0247192-.0350342.0031128-.0793457.0011597-.102478.0119629-.0370483.0172729-.0731201.0096436-.1099243.0131226-.0439453.0042114-.0773315.0014038-.1150513-.0062256-.0296021-.0055542-.0646973.0031738-.090332-.012085.0053711-.0095825.0169678-.0160522.0327759-.0211792.015564-.0050049.0303955-.0145874.0179443-.0228271-.0170288-.0112305-.0372925-.0036011-.0534058.0040894-.0100098-.0003052-.0199585-.0006104-.0300293-.0009766-.0063477-.0054321-.0155029-.0111084-.0258179-.0061035-.0042114.0020142.0024414.0105591.0042725.0160522-.0287476-.0010376-.0581055.0006714-.078186-.0159912-.0067749-.0056152-.0209961-.0026855-.0297241.0024414-.0117798.0109863-.0238647.0065918-.0358276-.0005493-.0318604.0103149-.0324097.0204468-.0020142.0375366-.0357056.000061-.0483398.0059204-.0184937.022644-.0240479.0125732-.0543213.005188-.0820923.0059204-.0222168.0006104-.046814-.0036621-.0605469.010376-.0084229.0076294-.024292.0060425-.0371094.0083618-.0355225-.0026855-.0489502-.0105591-.0247192-.0280151.0216064-.0157471.0092163-.0255737-.0224609-.0216064-.0327759.0040283-.0536499-.0032349-.0812378-.0100098-.0349121-.0085449-.0010376.0126953-.0150757.015625-.0307007-.0037842-.0664062.0045776-.0913696-.0126953-.0037842-.0070801-.0109253-.0103149-.024292-.0065308,0,0,.0043945.0045776.0065918.0070801-.0170898.010376-.0349121.0103149-.0517578-.0006714-.0131836-.008606-.0261841-.00354-.0395508-.0016479-.0054932.0032349-.0106812.0028687-.015564-.0006714-.0198975-.000061-.0397949-.0001831-.0596924-.0002441-.0537109-.005249-.0281982.0154419-.0293579.0274048-.0029297.0028076-.0057983.0057373-.008667.0084839-.013855-.0001831-.024231.0029297-.0306396.0095825-.0229492.000061-.0458984.0001831-.0688477.0004272-.0371704-.0032349-.0744629-.0073853-.1112061-.0004883-.0055542.0083618-.0119019.0107422-.0199585.0004272-.0117798-.0107422-.0179443-.0222778-.0160522-.034668-.013916,0-.0281372-.0006714-.0360718.0073242-.0131836.0013428-.0321045-.0028687-.0338135.0097656-.0036621.0023804-.0047607.005188-.0033569.0081787-.0315552.0158691-.072937.0045776-.1082764.0097656-.0875854-.0112305-.1652222.00354-.241333.022644-.0126953.0032349-.0137939.0092773-.0152588.015564-.0211182.0014038-.0314331-.0040894-.0348511-.0153198-.0020752-.0067139-.012085-.0125732-.0236206-.0107422-.0163574.0025024-.0133667.0116577-.012085.019165-.031311.0147705-.0335693-.0114746-.0540771-.012085-.0049438-.0015869-.0101318-.0021362-.015686-.0015259-.0296631-.015686-.0328979-.0024414-.0377808.0088501-.0298462-.0046387-.0596313-.0167236-.0894775-.0014648-.0135498-.0001831-.0386963-.003479-.0377808.0026245.0019531.0133667.0247803.0040283.0383911.0056763.0049438.0014648.0097046.0029907.0144653.0046387-.0050659.0092163-.0099487.0183716-.0149536.0275269-.0358276.0172119-.0791626.0174561-.1246338.0155029-.0219727-.0009766-.0635986-.0049438-.0592041.0095215.0070801.0240479-.0477905.0141602-.0484619.0344849.0449219-.0007935.0865479.0015869.125-.0029907.0806274-.0096436.1633911-.0078735.2443848-.013855.0321655.0163574.081604.0038452.1126709.0217896.0031738.0072632.0128784.0143433-.0098877.0184937-.0615845.0111084-.1295776-.0009155-.1898193.0130615-.0136719.0020752-.0303345.0014648-.03479.0114136-.0001831.0203857-.0263062.0255127-.0565186.0281372-.0045776-.0023804-.0099487-.0039062-.0160522-.0045166.0116577-.0180054-.0039062-.0241699-.0336304-.0198975-.0547485.0079956.0095825.012207.0039062.0188599-.003418.0040283-.0076904.0077515-.0115356.0115356-.0283203-.0028687-.0662842-.0133057-.0830688-.0072021-.036499.0134277-.0710449.0042725-.1060791.005249-.0339355-.0041504-.0690308-.0032959-.095459-.0219116-.0181274-.0127563-.0421753-.0081787-.0546265.0066528-.000061-.000061-.0001831,0-.0002441-.000061-.0263062.0002441-.0498047-.0059814-.0737305-.0111084-.0057983.0032959-.0111694.0027466-.0161133-.0008545-.0485229.0012207-.0993652-.0113525-.1452026.0049438-.0740967.0010376-.1470337.0059814-.2192383.0140991-.0101318-.0004272-.0202026-.0007935-.0303345-.0011597-.0083008-.0023193-.0166016-.0026245-.0250244-.0008545-.0530396.0021973-.1080322-.0039062-.1591797.0072632-.0614014-.0046387-.1223755-.0060425-.1809692.0058594-.022522-.0036011-.0449219-.0073242-.0673828-.0109253q-.0424805-.0045776-.0307617-.015686c.0249023.0013428.0499268.0025635.0748291.0039062q.0769653-.0083008.1083374-.0334473c.0012207-.0009155.0053711-.0007935.0081787-.0012207.0411377-.0122681.0799561.0067139.1186523.0050659.1055298-.0042725.213562-.0021362.3141479-.0230713.0787354.0014648.1580811.008667.2348633-.0046387l.0084229.0009155.0085449-.000061c.0322266.0007935.0646362.0015869.0968628.0023804.0238647.0006714.0292969-.0071411.0283813-.0180054h-.0001221c.0302124-.0119019.031311-.0249023.0027466-.0390015-.0059204.0072021-.0112305.005127-.0163574-.0006104-.0114136-.0004883-.0230713-.0009766-.0344849-.0014038-.0319824-.0213013-.0419922-.0013428-.0576172.0080566-.0061646.0004883-.0124512.0009766-.0186768.0015869l-.0010376-.0004883c-.010437-.0076294-.022644-.0064087-.0353394-.0028687-.0431519.0092773-.0836792.0283813-.1339111.0043945-.0073853-.003479-.0279541.0013428-.0426025.0023193-.0216675-.000061-.0432739-.0001831-.0650024-.0001831-.000061,0-.0001831-.000061-.0003052-.000061-.0093994.0025024-.0189209.0050049-.0284424.0075073-.0107422.005127-.0217285.0056152-.0328369-.0002441-.0072632-.0002441-.0146484-.0004883-.0219116-.0007324-.0466309.0004272-.0229492-.0319824-.0636597-.0374146-.0195923.0333862-.0761108.0439453-.1309204.0448608-.0419922.0007324-.0916748.0254517-.1309814-.0064087.0006714-.02948-.0432739-.0249634-.0687866-.0219116-.0386963.0045166-.0715332.0103149-.1022339-.0101929-.0050659-.003418-.0269165-.0045166-.0328369-.001709-.0268555.0124512-.0643311-.0007324-.0913696.0099487.0056152.012146.0100708.0231323.003418.0342407-.008728.0007324-.017334.001709-.0261841.0021973-.0519409.0025635-.052124.0025635-.0231934.0264893.0054321.0043945.0071411.0083618.0001221.0123291-.0265503-.0031128-.0571289.0006104-.0731201-.0181274-.0111084-.0128784-.0363159-.0037231-.0541382-.0073242-.0126343-.0048218-.0245361-.0056763-.0349731.0012817l.0005493-.0004883c-.0077515-.0001831-.0153809-.0003052-.0230713-.0004272-.0054321.0006714-.0103149,0-.0144653-.0022583-.0003052-.0029297-.0003662-.0058594-.0002441-.0087891-.0245972.0006104-.0521851-.0089111-.0721436.0056152-.0065918.003418-.0130615.006897-.0195312.0103149-.0054321-.0009155-.0108643-.0015259-.0165405-.0015869-.0075684-.0062866-.0192871-.0090942-.0320435-.0108643-.012085-.0128784-.0330811-.0174561-.0574951-.019043-.0105591-.0042725-.0202637-.0095825-.034729-.0093994-.0239868-.0058594-.0467529-.0206909-.0741577-.0046387-.0182495.0037231-.0406494.0008545-.0559692.0093994-.0469971-.0029907-.0918579-.0037231-.1286011-.0280151-.0251465-.0166016-.081543-.0091553-.1395264.0083008-.0137939.0040894-.0333862.003479-.050415.0033569-.0629272-.0006104-.1263428.0001831-.1860962.0087891-.0383911.0055542-.0684814.0130615-.1135864.0043335-.0610352-.0116577-.0803833.0045166-.0576172.0414429-.0465088.0007324-.0876465.0159912-.1359863.0102539-.0236206-.0153809-.0610352-.0142212-.0821533-.0085449-.0301514.0081787-.0559082.0037231-.0847168.0039062-.0512085.0003052-.1020508.0003052-.1533203-.0036011v1.3371582h30l.0110879-1.5149058ZM15.60391.9069954c-.0012817.0011597-.0031738.00177-.0040894.0031128-.0016479-.0006104-.0039062.0001831-.0054321-.0007324.0025024-.0015259.0065918-.0010986.0095215-.0023804ZM10.8282752.2588631c0,.0001221.000061.0002441.000061.0003662-.0005493-.0002441-.0010986-.0002441-.0015869-.0003662.0005493.000061.0009766-.000061.0015259,0ZM8.2696205.1667c-.0009155-.0009155-.0018311-.00177-.0028076-.0025635.0010376-.000061.0019531-.0003662.0029907-.0003662-.0007324.0009766.0001221.0019531-.0001831.0029297ZM2.4520545.7727181c.0039673.0013428.0080566.0026245.0120239.0039673-.0001221.0001221-.0003662.0003052-.0004883.0004883-.005249-.00177-.0100708-.0042725-.0169067-.0042114.00177-.0001221.0036621-.0001221.0053711-.0002441ZM2.2944007.8880745c-.0126953-.0003052-.0073853.0064697-.0072021,0,.0001831-.0018311.0095215-.0022583.0150146-.0018311.0062256-.0009766.0126343-.0020752.0188599-.0032349.0067749.0001831.0147705.0007935.0218506.0003052-.0166016.0004883-.03302.0012207-.0485229.0047607ZM2.3945594.8640267c.0016479.0024414.0033569.0048218.0050659.0073242.000061-.0028076-.0025635-.0050659-.0053101-.0073242h.0002441ZM2.3971839.873243c.0009766-.0004883.0025024.0001831.003418-.0004272.0001221.0002441.0003052.0003662.0004272.0005493-.0012817.000061-.0025635-.0001221-.0038452-.0001221ZM2.5040565.8670174c0,.0003662-.000061.0007324-.000061.0011597-.0003662-.0001831-.0015259-.0007935-.0015869-.0009155-.0004883-.0010986.0014648.000061.0011597-.0003662.0001831.000061.0003662.000061.0004883.0001221l-.0001831-.0002441c-.0003662-.0002441.0011597-.0006104.0012817-.0004272h.0002441c-.0004272.0001831-.0009155.0004272-.0013428.0006714ZM3.4469276.836866c.0012817.0022583.0037842.0045776-.0031738.007019.0116577-.0041504.0032959-.0078735-.0012207-.0118408.0009766.0002441.0018311-.0003662.0028687-.000061l-.0020142.0007324c.0026245-.0002441.0007324.001709.0028076.001709.0005493-.0007324-.0014648-.0013428-.0006714-.0021973.0004272-.0001831.0007935,0,.0011597-.0001831.0013428.0010986-.000061.0022583.0009766.0032959-.0009155-.000061-.0004272-.0007935-.0014648-.0009155-.0006714.0009155.0010986.0015869.0007324.0024414ZM3.8079505.6831185c-.0076904-.0003052-.015564-.0006104-.0232544-.0010376.0076904-.0024414.0161133-.0014648.0241089-.0024414-.0012207.0011597-.0012207.0021973-.0008545.003479ZM4.2413612.6552254c-.0006104.000061-.0026855-.0013428-.0037231-.0016479.0022583.0006714.0043335.0007324.0065918.0012817-.0009155.0001831-.0020142.000061-.0028687.0003662ZM4.3524452.6428963c0-.0001221.000061-.0002441.000061-.0003662.000061-.000061.0001831,0,.0002441,0-.0001221.0001221-.0002441.0002441-.0003052.0003662ZM6.5157752.5352303c-.0012817-.0005493-.0009766-.0012817-.0024414-.0018311.0011597.0003052.0019531.0005493.0029907.0008545-.0003052.0003662-.0004272.0006104-.0005493.0009766ZM12.3246131.5548836c-.0012207-.0012817-.0024414-.0026855-.0036011-.0040283.0023804-.0007324.0047607.0005493.0072021.000061-.0020142.0011597-.0029907.0025024-.0036011.0039673ZM12.425138.569532c.0028076-.0010376.0063477-.0012817.0096436-.0015259.0009155.0003662.0014648.0009155.0026855.0010986-.0043335.0003052-.0082397.0002441-.0123291.0004272ZM15.9543739.9992195c-.003418-.0014648-.0074463-.0008545-.0109863-.0020752.0092163-.0009155.0180054.0011597.0274048-.0005493h.000061c-.0056152.0010376-.0137939.0037842-.0164795.0026245ZM27.989225.8037239c-.0003662,0-.0004272-.0001221-.0009766-.0001831.0003052-.0003052.0009155-.000061.0012207-.0003662.000061.0001221-.0003052.0003662-.0002441.0005493Z" fill="#fff"/>
    </g>
  </g>
</svg>